<mxfile host="Electron" agent="Mozilla/5.0 (Windows NT 10.0; Win64; x64) AppleWebKit/537.36 (KHTML, like Gecko) draw.io/24.7.8 Chrome/128.0.6613.36 Electron/32.0.1 Safari/537.36" version="24.7.8">
  <diagram name="Seite-1" id="XW_0ANEHmPP_M-6RpB5G">
    <mxGraphModel dx="1434" dy="836" grid="1" gridSize="10" guides="1" tooltips="1" connect="1" arrows="1" fold="1" page="1" pageScale="1" pageWidth="827" pageHeight="1169" math="0" shadow="0">
      <root>
        <mxCell id="0" />
        <mxCell id="1" parent="0" />
        <mxCell id="kurR8D_o498Ej0qyucVB-48" value="" style="rounded=0;whiteSpace=wrap;html=1;fillColor=#A9C4EB;strokeColor=#666666;fontColor=#333333;opacity=10;glass=1;" parent="1" vertex="1">
          <mxGeometry x="39" y="295.5" width="750" height="485" as="geometry" />
        </mxCell>
        <mxCell id="P1MDgO6zlZVomxwXiuD8-25" value="Grundelemente der EPK" style="shape=table;startSize=30;container=1;collapsible=0;childLayout=tableLayout;labelBackgroundColor=none;labelBorderColor=none;textShadow=0;fontSize=13;fontStyle=1;strokeWidth=1;fillColor=#E6E6E6;rounded=1;swimlaneLine=1;shadow=0;opacity=60;swimlaneFillColor=default;" parent="1" vertex="1">
          <mxGeometry x="430" y="320" width="320" height="436" as="geometry" />
        </mxCell>
        <mxCell id="P1MDgO6zlZVomxwXiuD8-26" value="" style="shape=tableRow;horizontal=0;startSize=0;swimlaneHead=0;swimlaneBody=0;strokeColor=inherit;top=0;left=0;bottom=0;right=0;collapsible=0;dropTarget=0;fillColor=none;points=[[0,0.5],[1,0.5]];portConstraint=eastwest;fontSize=13;labelBackgroundColor=none;swimlaneLine=1;" parent="P1MDgO6zlZVomxwXiuD8-25" vertex="1">
          <mxGeometry y="30" width="320" height="21" as="geometry" />
        </mxCell>
        <mxCell id="P1MDgO6zlZVomxwXiuD8-27" value="&lt;b&gt;&lt;font color=&quot;#000000&quot;&gt;Element&lt;/font&gt;&lt;/b&gt;" style="shape=partialRectangle;html=1;whiteSpace=wrap;connectable=0;overflow=hidden;top=0;left=0;bottom=0;right=0;pointerEvents=1;fontSize=13;fillColor=none;fontColor=#333333;strokeColor=#000000;labelBackgroundColor=none;swimlaneLine=1;" parent="P1MDgO6zlZVomxwXiuD8-26" vertex="1">
          <mxGeometry width="143" height="21" as="geometry">
            <mxRectangle width="143" height="21" as="alternateBounds" />
          </mxGeometry>
        </mxCell>
        <mxCell id="P1MDgO6zlZVomxwXiuD8-28" value="&lt;b&gt;Symbol&lt;/b&gt;" style="shape=partialRectangle;html=1;whiteSpace=wrap;connectable=0;overflow=hidden;top=0;left=0;bottom=0;right=0;pointerEvents=1;fontSize=13;fillColor=none;labelBackgroundColor=none;swimlaneLine=1;" parent="P1MDgO6zlZVomxwXiuD8-26" vertex="1">
          <mxGeometry x="143" width="177" height="21" as="geometry">
            <mxRectangle width="177" height="21" as="alternateBounds" />
          </mxGeometry>
        </mxCell>
        <mxCell id="P1MDgO6zlZVomxwXiuD8-30" value="" style="shape=tableRow;horizontal=0;startSize=0;swimlaneHead=0;swimlaneBody=0;strokeColor=default;top=0;left=0;bottom=0;right=0;collapsible=0;dropTarget=0;fillColor=none;points=[[0,0.5],[1,0.5]];portConstraint=eastwest;fontSize=13;labelBackgroundColor=none;swimlaneLine=1;" parent="P1MDgO6zlZVomxwXiuD8-25" vertex="1">
          <mxGeometry y="51" width="320" height="56" as="geometry" />
        </mxCell>
        <mxCell id="P1MDgO6zlZVomxwXiuD8-31" value="&lt;b&gt;Ereignis&lt;/b&gt;" style="shape=partialRectangle;html=1;whiteSpace=wrap;connectable=0;strokeColor=inherit;overflow=hidden;fillColor=none;top=0;left=0;bottom=0;right=0;pointerEvents=1;fontSize=13;labelBackgroundColor=none;swimlaneLine=1;" parent="P1MDgO6zlZVomxwXiuD8-30" vertex="1">
          <mxGeometry width="143" height="56" as="geometry">
            <mxRectangle width="143" height="56" as="alternateBounds" />
          </mxGeometry>
        </mxCell>
        <mxCell id="P1MDgO6zlZVomxwXiuD8-32" value="" style="shape=partialRectangle;html=1;whiteSpace=wrap;connectable=0;strokeColor=default;overflow=hidden;fillColor=none;top=0;left=0;bottom=0;right=0;pointerEvents=1;fontSize=13;labelBackgroundColor=none;swimlaneLine=1;" parent="P1MDgO6zlZVomxwXiuD8-30" vertex="1">
          <mxGeometry x="143" width="177" height="56" as="geometry">
            <mxRectangle width="177" height="56" as="alternateBounds" />
          </mxGeometry>
        </mxCell>
        <mxCell id="P1MDgO6zlZVomxwXiuD8-34" value="" style="shape=tableRow;horizontal=0;startSize=0;swimlaneHead=0;swimlaneBody=0;strokeColor=inherit;top=0;left=0;bottom=0;right=0;collapsible=0;dropTarget=0;fillColor=none;points=[[0,0.5],[1,0.5]];portConstraint=eastwest;fontSize=13;labelBackgroundColor=none;swimlaneLine=1;" parent="P1MDgO6zlZVomxwXiuD8-25" vertex="1">
          <mxGeometry y="107" width="320" height="58" as="geometry" />
        </mxCell>
        <mxCell id="P1MDgO6zlZVomxwXiuD8-35" value="&lt;b&gt;Funktion&lt;/b&gt;" style="shape=partialRectangle;html=1;whiteSpace=wrap;connectable=0;strokeColor=inherit;overflow=hidden;fillColor=none;top=0;left=0;bottom=0;right=0;pointerEvents=1;fontSize=13;labelBackgroundColor=none;swimlaneLine=1;" parent="P1MDgO6zlZVomxwXiuD8-34" vertex="1">
          <mxGeometry width="143" height="58" as="geometry">
            <mxRectangle width="143" height="58" as="alternateBounds" />
          </mxGeometry>
        </mxCell>
        <mxCell id="P1MDgO6zlZVomxwXiuD8-36" value="" style="shape=partialRectangle;html=1;whiteSpace=wrap;connectable=0;strokeColor=inherit;overflow=hidden;fillColor=none;top=0;left=0;bottom=0;right=0;pointerEvents=1;fontSize=13;labelBackgroundColor=none;swimlaneLine=1;" parent="P1MDgO6zlZVomxwXiuD8-34" vertex="1">
          <mxGeometry x="143" width="177" height="58" as="geometry">
            <mxRectangle width="177" height="58" as="alternateBounds" />
          </mxGeometry>
        </mxCell>
        <mxCell id="P1MDgO6zlZVomxwXiuD8-38" value="" style="shape=tableRow;horizontal=0;startSize=0;swimlaneHead=0;swimlaneBody=0;strokeColor=inherit;top=0;left=0;bottom=0;right=0;collapsible=0;dropTarget=0;fillColor=none;points=[[0,0.5],[1,0.5]];portConstraint=eastwest;fontSize=13;labelBackgroundColor=none;swimlaneLine=1;" parent="P1MDgO6zlZVomxwXiuD8-25" vertex="1">
          <mxGeometry y="165" width="320" height="56" as="geometry" />
        </mxCell>
        <mxCell id="P1MDgO6zlZVomxwXiuD8-39" value="&lt;b&gt;Organisatorische Einheit&lt;/b&gt;" style="shape=partialRectangle;html=1;whiteSpace=wrap;connectable=0;strokeColor=inherit;overflow=hidden;fillColor=none;top=0;left=0;bottom=0;right=0;pointerEvents=1;fontSize=13;labelBackgroundColor=none;swimlaneLine=1;" parent="P1MDgO6zlZVomxwXiuD8-38" vertex="1">
          <mxGeometry width="143" height="56" as="geometry">
            <mxRectangle width="143" height="56" as="alternateBounds" />
          </mxGeometry>
        </mxCell>
        <mxCell id="P1MDgO6zlZVomxwXiuD8-40" value="" style="shape=partialRectangle;html=1;whiteSpace=wrap;connectable=0;strokeColor=inherit;overflow=hidden;fillColor=none;top=0;left=0;bottom=0;right=0;pointerEvents=1;fontSize=13;opacity=90;labelBackgroundColor=none;swimlaneLine=1;" parent="P1MDgO6zlZVomxwXiuD8-38" vertex="1">
          <mxGeometry x="143" width="177" height="56" as="geometry">
            <mxRectangle width="177" height="56" as="alternateBounds" />
          </mxGeometry>
        </mxCell>
        <mxCell id="P1MDgO6zlZVomxwXiuD8-61" style="shape=tableRow;horizontal=0;startSize=0;swimlaneHead=0;swimlaneBody=0;strokeColor=inherit;top=0;left=0;bottom=0;right=0;collapsible=0;dropTarget=0;fillColor=none;points=[[0,0.5],[1,0.5]];portConstraint=eastwest;fontSize=13;labelBackgroundColor=none;swimlaneLine=1;" parent="P1MDgO6zlZVomxwXiuD8-25" vertex="1">
          <mxGeometry y="221" width="320" height="57" as="geometry" />
        </mxCell>
        <mxCell id="P1MDgO6zlZVomxwXiuD8-62" value="&lt;b&gt;Prozess-Schnittstelle&lt;/b&gt;" style="shape=partialRectangle;html=1;whiteSpace=wrap;connectable=0;strokeColor=inherit;overflow=hidden;fillColor=none;top=0;left=0;bottom=0;right=0;pointerEvents=1;fontSize=13;labelBackgroundColor=none;swimlaneLine=1;" parent="P1MDgO6zlZVomxwXiuD8-61" vertex="1">
          <mxGeometry width="143" height="57" as="geometry">
            <mxRectangle width="143" height="57" as="alternateBounds" />
          </mxGeometry>
        </mxCell>
        <mxCell id="P1MDgO6zlZVomxwXiuD8-63" style="shape=partialRectangle;html=1;whiteSpace=wrap;connectable=0;strokeColor=inherit;overflow=hidden;fillColor=none;top=0;left=0;bottom=0;right=0;pointerEvents=1;fontSize=13;labelBackgroundColor=none;swimlaneLine=1;" parent="P1MDgO6zlZVomxwXiuD8-61" vertex="1">
          <mxGeometry x="143" width="177" height="57" as="geometry">
            <mxRectangle width="177" height="57" as="alternateBounds" />
          </mxGeometry>
        </mxCell>
        <mxCell id="P1MDgO6zlZVomxwXiuD8-42" value="" style="shape=tableRow;horizontal=0;startSize=0;swimlaneHead=0;swimlaneBody=0;strokeColor=inherit;top=0;left=0;bottom=0;right=0;collapsible=0;dropTarget=0;fillColor=none;points=[[0,0.5],[1,0.5]];portConstraint=eastwest;fontSize=13;labelBackgroundColor=none;swimlaneLine=1;" parent="P1MDgO6zlZVomxwXiuD8-25" vertex="1">
          <mxGeometry y="278" width="320" height="57" as="geometry" />
        </mxCell>
        <mxCell id="P1MDgO6zlZVomxwXiuD8-43" value="&lt;b&gt;Konnektoren&lt;/b&gt;" style="shape=partialRectangle;html=1;whiteSpace=wrap;connectable=0;strokeColor=inherit;overflow=hidden;fillColor=none;top=0;left=0;bottom=0;right=0;pointerEvents=1;fontSize=13;labelBackgroundColor=none;swimlaneLine=1;" parent="P1MDgO6zlZVomxwXiuD8-42" vertex="1">
          <mxGeometry width="143" height="57" as="geometry">
            <mxRectangle width="143" height="57" as="alternateBounds" />
          </mxGeometry>
        </mxCell>
        <mxCell id="P1MDgO6zlZVomxwXiuD8-44" value="" style="shape=partialRectangle;html=1;whiteSpace=wrap;connectable=0;strokeColor=inherit;overflow=hidden;fillColor=none;top=0;left=0;bottom=0;right=0;pointerEvents=1;fontSize=13;labelBackgroundColor=none;swimlaneLine=1;" parent="P1MDgO6zlZVomxwXiuD8-42" vertex="1">
          <mxGeometry x="143" width="177" height="57" as="geometry">
            <mxRectangle width="177" height="57" as="alternateBounds" />
          </mxGeometry>
        </mxCell>
        <mxCell id="P1MDgO6zlZVomxwXiuD8-56" style="shape=tableRow;horizontal=0;startSize=0;swimlaneHead=0;swimlaneBody=0;strokeColor=inherit;top=0;left=0;bottom=0;right=0;collapsible=0;dropTarget=0;fillColor=none;points=[[0,0.5],[1,0.5]];portConstraint=eastwest;fontSize=13;labelBackgroundColor=none;swimlaneLine=1;" parent="P1MDgO6zlZVomxwXiuD8-25" vertex="1">
          <mxGeometry y="335" width="320" height="101" as="geometry" />
        </mxCell>
        <mxCell id="P1MDgO6zlZVomxwXiuD8-57" value="&lt;b&gt;Kontrollfluss&lt;/b&gt;" style="shape=partialRectangle;html=1;whiteSpace=wrap;connectable=0;strokeColor=inherit;overflow=hidden;fillColor=none;top=0;left=0;bottom=0;right=0;pointerEvents=1;fontSize=13;labelBackgroundColor=none;swimlaneLine=1;" parent="P1MDgO6zlZVomxwXiuD8-56" vertex="1">
          <mxGeometry width="143" height="101" as="geometry">
            <mxRectangle width="143" height="101" as="alternateBounds" />
          </mxGeometry>
        </mxCell>
        <mxCell id="P1MDgO6zlZVomxwXiuD8-58" style="shape=partialRectangle;html=1;whiteSpace=wrap;connectable=0;strokeColor=inherit;overflow=hidden;fillColor=none;top=0;left=0;bottom=0;right=0;pointerEvents=1;fontSize=13;labelBackgroundColor=none;swimlaneLine=1;" parent="P1MDgO6zlZVomxwXiuD8-56" vertex="1">
          <mxGeometry x="143" width="177" height="101" as="geometry">
            <mxRectangle width="177" height="101" as="alternateBounds" />
          </mxGeometry>
        </mxCell>
        <mxCell id="kurR8D_o498Ej0qyucVB-27" value="Start-&lt;div&gt;ereignis&lt;/div&gt;" style="shape=hexagon;perimeter=hexagonPerimeter2;whiteSpace=wrap;html=1;size=0.25;strokeColor=none;fillColor=#CCCCCC;" parent="1" vertex="1">
          <mxGeometry x="170" y="716.5" width="100" height="50" as="geometry" />
        </mxCell>
        <mxCell id="kurR8D_o498Ej0qyucVB-26" style="edgeStyle=orthogonalEdgeStyle;rounded=0;orthogonalLoop=1;jettySize=auto;html=1;exitX=0.5;exitY=1;exitDx=0;exitDy=0;entryX=0.5;entryY=0;entryDx=0;entryDy=0;" parent="1" source="kurR8D_o498Ej0qyucVB-4" target="kurR8D_o498Ej0qyucVB-13" edge="1">
          <mxGeometry relative="1" as="geometry" />
        </mxCell>
        <mxCell id="kurR8D_o498Ej0qyucVB-4" value="&lt;b&gt;Ereignis 4&lt;/b&gt;" style="shape=hexagon;perimeter=hexagonPerimeter2;whiteSpace=wrap;html=1;size=0.25;strokeColor=none;fillColor=#CCCCCC;" parent="1" vertex="1">
          <mxGeometry x="160" y="646.5" width="100" height="50" as="geometry" />
        </mxCell>
        <mxCell id="kurR8D_o498Ej0qyucVB-19" style="edgeStyle=orthogonalEdgeStyle;rounded=0;orthogonalLoop=1;jettySize=auto;html=1;exitX=1;exitY=0.5;exitDx=0;exitDy=0;entryX=0.5;entryY=0;entryDx=0;entryDy=0;" parent="1" source="kurR8D_o498Ej0qyucVB-7" target="kurR8D_o498Ej0qyucVB-10" edge="1">
          <mxGeometry relative="1" as="geometry" />
        </mxCell>
        <mxCell id="kurR8D_o498Ej0qyucVB-20" style="edgeStyle=orthogonalEdgeStyle;rounded=0;orthogonalLoop=1;jettySize=auto;html=1;exitX=0;exitY=0.5;exitDx=0;exitDy=0;entryX=0.5;entryY=0;entryDx=0;entryDy=0;" parent="1" source="kurR8D_o498Ej0qyucVB-7" target="kurR8D_o498Ej0qyucVB-9" edge="1">
          <mxGeometry relative="1" as="geometry" />
        </mxCell>
        <mxCell id="kurR8D_o498Ej0qyucVB-7" value="&lt;b&gt;XOR&lt;/b&gt;" style="shape=ellipse;html=1;dashed=0;whiteSpace=wrap;aspect=fixed;perimeter=ellipsePerimeter;" parent="1" vertex="1">
          <mxGeometry x="190" y="436.5" width="40" height="40" as="geometry" />
        </mxCell>
        <mxCell id="kurR8D_o498Ej0qyucVB-18" style="edgeStyle=orthogonalEdgeStyle;rounded=0;orthogonalLoop=1;jettySize=auto;html=1;exitX=0.5;exitY=1;exitDx=0;exitDy=0;entryX=0.5;entryY=0;entryDx=0;entryDy=0;" parent="1" source="kurR8D_o498Ej0qyucVB-8" target="kurR8D_o498Ej0qyucVB-7" edge="1">
          <mxGeometry relative="1" as="geometry" />
        </mxCell>
        <mxCell id="kurR8D_o498Ej0qyucVB-8" value="&lt;b&gt;Funktion 1&lt;/b&gt;" style="rounded=1;whiteSpace=wrap;html=1;absoluteArcSize=1;arcSize=14;strokeWidth=1;" parent="1" vertex="1">
          <mxGeometry x="170" y="376.5" width="80" height="40" as="geometry" />
        </mxCell>
        <mxCell id="kurR8D_o498Ej0qyucVB-21" style="edgeStyle=orthogonalEdgeStyle;rounded=0;orthogonalLoop=1;jettySize=auto;html=1;exitX=0.5;exitY=1;exitDx=0;exitDy=0;entryX=0.5;entryY=0;entryDx=0;entryDy=0;" parent="1" source="kurR8D_o498Ej0qyucVB-9" target="kurR8D_o498Ej0qyucVB-12" edge="1">
          <mxGeometry relative="1" as="geometry" />
        </mxCell>
        <mxCell id="kurR8D_o498Ej0qyucVB-9" value="&lt;b&gt;Ereignis 2&lt;/b&gt;" style="shape=hexagon;perimeter=hexagonPerimeter2;whiteSpace=wrap;html=1;size=0.25;strokeColor=none;fillColor=#CCCCCC;" parent="1" vertex="1">
          <mxGeometry x="80" y="476.5" width="100" height="50" as="geometry" />
        </mxCell>
        <mxCell id="kurR8D_o498Ej0qyucVB-22" style="edgeStyle=orthogonalEdgeStyle;rounded=0;orthogonalLoop=1;jettySize=auto;html=1;exitX=0.5;exitY=1;exitDx=0;exitDy=0;entryX=0.5;entryY=0;entryDx=0;entryDy=0;" parent="1" source="kurR8D_o498Ej0qyucVB-10" target="kurR8D_o498Ej0qyucVB-16" edge="1">
          <mxGeometry relative="1" as="geometry" />
        </mxCell>
        <mxCell id="kurR8D_o498Ej0qyucVB-10" value="&lt;b&gt;Ereignis 3&lt;/b&gt;" style="shape=hexagon;perimeter=hexagonPerimeter2;whiteSpace=wrap;html=1;size=0.25;strokeColor=none;fillColor=#CCCCCC;" parent="1" vertex="1">
          <mxGeometry x="240" y="476.5" width="100" height="50" as="geometry" />
        </mxCell>
        <mxCell id="kurR8D_o498Ej0qyucVB-23" style="edgeStyle=orthogonalEdgeStyle;rounded=0;orthogonalLoop=1;jettySize=auto;html=1;exitX=0.5;exitY=1;exitDx=0;exitDy=0;entryX=0;entryY=0.5;entryDx=0;entryDy=0;" parent="1" source="kurR8D_o498Ej0qyucVB-12" target="kurR8D_o498Ej0qyucVB-14" edge="1">
          <mxGeometry relative="1" as="geometry" />
        </mxCell>
        <mxCell id="kurR8D_o498Ej0qyucVB-12" value="&lt;b&gt;Funktion 2&lt;/b&gt;" style="rounded=1;whiteSpace=wrap;html=1;absoluteArcSize=1;arcSize=14;strokeWidth=1;" parent="1" vertex="1">
          <mxGeometry x="90" y="546.5" width="80" height="40" as="geometry" />
        </mxCell>
        <mxCell id="kurR8D_o498Ej0qyucVB-13" value="&lt;b&gt;Funktion 4&lt;/b&gt;" style="rounded=1;whiteSpace=wrap;html=1;absoluteArcSize=1;arcSize=14;strokeWidth=1;" parent="1" vertex="1">
          <mxGeometry x="170" y="716.5" width="80" height="40" as="geometry" />
        </mxCell>
        <mxCell id="kurR8D_o498Ej0qyucVB-25" style="edgeStyle=orthogonalEdgeStyle;rounded=0;orthogonalLoop=1;jettySize=auto;html=1;exitX=0.5;exitY=1;exitDx=0;exitDy=0;entryX=0.5;entryY=0;entryDx=0;entryDy=0;" parent="1" source="kurR8D_o498Ej0qyucVB-14" target="kurR8D_o498Ej0qyucVB-4" edge="1">
          <mxGeometry relative="1" as="geometry" />
        </mxCell>
        <mxCell id="kurR8D_o498Ej0qyucVB-14" value="&lt;b&gt;XOR&lt;/b&gt;" style="shape=ellipse;html=1;dashed=0;whiteSpace=wrap;aspect=fixed;perimeter=ellipsePerimeter;" parent="1" vertex="1">
          <mxGeometry x="190" y="586.5" width="40" height="40" as="geometry" />
        </mxCell>
        <mxCell id="kurR8D_o498Ej0qyucVB-17" style="edgeStyle=orthogonalEdgeStyle;rounded=0;orthogonalLoop=1;jettySize=auto;html=1;exitX=0.5;exitY=1;exitDx=0;exitDy=0;entryX=0.5;entryY=0;entryDx=0;entryDy=0;" parent="1" source="kurR8D_o498Ej0qyucVB-15" target="kurR8D_o498Ej0qyucVB-8" edge="1">
          <mxGeometry relative="1" as="geometry" />
        </mxCell>
        <mxCell id="kurR8D_o498Ej0qyucVB-15" value="&lt;b&gt;Start-&lt;/b&gt;&lt;div&gt;&lt;b&gt;ereignis&lt;/b&gt;&lt;/div&gt;" style="shape=hexagon;perimeter=hexagonPerimeter2;whiteSpace=wrap;html=1;size=0.25;strokeColor=none;fillColor=#CCCCCC;" parent="1" vertex="1">
          <mxGeometry x="160" y="306.5" width="100" height="50" as="geometry" />
        </mxCell>
        <mxCell id="kurR8D_o498Ej0qyucVB-24" style="edgeStyle=orthogonalEdgeStyle;rounded=0;orthogonalLoop=1;jettySize=auto;html=1;exitX=0.5;exitY=1;exitDx=0;exitDy=0;entryX=1;entryY=0.5;entryDx=0;entryDy=0;" parent="1" source="kurR8D_o498Ej0qyucVB-16" target="kurR8D_o498Ej0qyucVB-14" edge="1">
          <mxGeometry relative="1" as="geometry" />
        </mxCell>
        <mxCell id="kurR8D_o498Ej0qyucVB-16" value="&lt;b&gt;Funktion 3&lt;/b&gt;" style="rounded=1;whiteSpace=wrap;html=1;absoluteArcSize=1;arcSize=14;strokeWidth=1;" parent="1" vertex="1">
          <mxGeometry x="250" y="546.5" width="80" height="40" as="geometry" />
        </mxCell>
        <mxCell id="kurR8D_o498Ej0qyucVB-38" value="&lt;b style=&quot;font-size: 13px;&quot;&gt;XOR&lt;/b&gt;" style="shape=ellipse;html=1;dashed=0;whiteSpace=wrap;aspect=fixed;perimeter=ellipsePerimeter;fontSize=13;labelBackgroundColor=none;swimlaneLine=1;" parent="1" vertex="1">
          <mxGeometry x="703" y="607.5" width="40" height="40" as="geometry" />
        </mxCell>
        <mxCell id="kurR8D_o498Ej0qyucVB-39" value="&lt;h1 class=&quot;navigable-headline&quot; id=&quot;gen-h1-1-00000001&quot; style=&quot;margin: 0px 0px 1em; padding: 0.9em 0px 0px 1px; border: 0px; outline: 0px; font-size: 41px; vertical-align: baseline; background-image: initial; background-position: 0px 0px; background-size: initial; background-repeat: initial; background-attachment: initial; background-origin: initial; background-clip: initial; font-weight: 300; line-height: 1.2; color: rgb(55, 54, 55); font-family: &amp;quot;Source Sans Pro&amp;quot;, Roboto, &amp;quot;San Francisco&amp;quot;, &amp;quot;Segoe UI&amp;quot;, sans-serif;&quot;&gt;&lt;span class=&quot;code char&quot; style=&quot;background-image: initial; background-position: 0px 0px; background-size: initial; background-repeat: initial; background-attachment: initial; background-origin: initial; background-clip: initial; margin: 0px; padding: 0px; border: 0px; outline: 0px; vertical-align: baseline; min-width: 24px; display: inline-block; font-size: 41px;&quot;&gt;˅&lt;/span&gt;&lt;/h1&gt;" style="shape=ellipse;html=1;dashed=0;whiteSpace=wrap;aspect=fixed;perimeter=ellipsePerimeter;fontSize=41;labelBackgroundColor=none;swimlaneLine=1;" parent="1" vertex="1">
          <mxGeometry x="643" y="607.5" width="40" height="40" as="geometry" />
        </mxCell>
        <mxCell id="kurR8D_o498Ej0qyucVB-43" value="&lt;h1 class=&quot;navigable-headline&quot; id=&quot;gen-h1-1-00000001&quot; style=&quot;margin: 0px 0px 1em; padding: 0.9em 0px 0px 1px; border: 0px; outline: 0px; font-size: 41px; vertical-align: baseline; background-image: initial; background-position: 0px 0px; background-size: initial; background-repeat: initial; background-attachment: initial; background-origin: initial; background-clip: initial; font-weight: 300; line-height: 1.2; color: rgb(55, 54, 55); font-family: &amp;quot;Source Sans Pro&amp;quot;, Roboto, &amp;quot;San Francisco&amp;quot;, &amp;quot;Segoe UI&amp;quot;, sans-serif;&quot;&gt;&lt;span class=&quot;code char&quot; style=&quot;background-image: initial; background-position: 0px 0px; background-size: initial; background-repeat: initial; background-attachment: initial; background-origin: initial; background-clip: initial; margin: 0px; padding: 0px; border: 0px; outline: 0px; vertical-align: baseline; min-width: 24px; display: inline-block; font-size: 41px;&quot;&gt;˄&lt;/span&gt;&lt;/h1&gt;" style="shape=ellipse;html=1;dashed=0;whiteSpace=wrap;aspect=fixed;perimeter=ellipsePerimeter;fontSize=41;labelBackgroundColor=none;swimlaneLine=1;" parent="1" vertex="1">
          <mxGeometry x="581" y="607.5" width="40" height="40" as="geometry" />
        </mxCell>
        <mxCell id="kurR8D_o498Ej0qyucVB-29" value="" style="shape=hexagon;perimeter=hexagonPerimeter2;whiteSpace=wrap;html=1;size=0.25;strokeColor=none;fillColor=#CCCCCC;fontSize=13;labelBackgroundColor=none;swimlaneLine=1;" parent="1" vertex="1">
          <mxGeometry x="622" y="545" width="100" height="50" as="geometry" />
        </mxCell>
        <mxCell id="kurR8D_o498Ej0qyucVB-30" value="" style="rounded=1;whiteSpace=wrap;html=1;absoluteArcSize=1;arcSize=14;strokeWidth=1;fontSize=13;labelBackgroundColor=none;swimlaneLine=1;strokeColor=#000000;" parent="1" vertex="1">
          <mxGeometry x="622" y="545" width="80" height="40" as="geometry" />
        </mxCell>
        <mxCell id="kurR8D_o498Ej0qyucVB-33" value="" style="rounded=1;whiteSpace=wrap;html=1;absoluteArcSize=1;arcSize=14;strokeWidth=1;fontSize=13;labelBackgroundColor=none;swimlaneLine=1;" parent="1" vertex="1">
          <mxGeometry x="623" y="436" width="80" height="40" as="geometry" />
        </mxCell>
        <mxCell id="kurR8D_o498Ej0qyucVB-47" value="" style="endArrow=classic;html=1;rounded=0;entryX=0.691;entryY=0.984;entryDx=0;entryDy=0;entryPerimeter=0;strokeWidth=1.5;fontSize=13;labelBackgroundColor=none;swimlaneLine=1;" parent="1" edge="1">
          <mxGeometry width="50" height="50" relative="1" as="geometry">
            <mxPoint x="662.08" y="667.5" as="sourcePoint" />
            <mxPoint x="663.93" y="744.6599999999999" as="targetPoint" />
          </mxGeometry>
        </mxCell>
        <mxCell id="kurR8D_o498Ej0qyucVB-28" value="" style="shape=hexagon;perimeter=hexagonPerimeter2;whiteSpace=wrap;html=1;size=0.25;strokeColor=none;fillColor=#CCCCCC;fontSize=13;labelBackgroundColor=none;swimlaneLine=1;" parent="1" vertex="1">
          <mxGeometry x="613.5" y="373.5" width="100" height="50" as="geometry" />
        </mxCell>
        <mxCell id="P1MDgO6zlZVomxwXiuD8-66" value="" style="strokeWidth=1;html=1;shape=mxgraph.flowchart.start_1;whiteSpace=wrap;fontSize=13;labelBackgroundColor=none;swimlaneLine=1;strokeColor=#000000;" parent="1" vertex="1">
          <mxGeometry x="621" y="488.5" width="85" height="50" as="geometry" />
        </mxCell>
        <mxCell id="P1MDgO6zlZVomxwXiuD8-67" value="" style="line;strokeWidth=1;direction=south;html=1;fontSize=13;labelBackgroundColor=none;swimlaneLine=1;strokeColor=#000000;" parent="1" vertex="1">
          <mxGeometry x="629.5" y="495.5" width="10" height="36" as="geometry" />
        </mxCell>
      </root>
    </mxGraphModel>
  </diagram>
</mxfile>
